<?xml version="1.0" encoding="UTF-8" standalone="no"?>
<!-- Created with Inkscape (http://www.inkscape.org/) -->

<svg
   xmlns:dc="http://purl.org/dc/elements/1.1/"
   xmlns:cc="http://creativecommons.org/ns#"
   xmlns:rdf="http://www.w3.org/1999/02/22-rdf-syntax-ns#"
   xmlns:svg="http://www.w3.org/2000/svg"
   xmlns="http://www.w3.org/2000/svg"
   xmlns:sodipodi="http://sodipodi.sourceforge.net/DTD/sodipodi-0.dtd"
   xmlns:inkscape="http://www.inkscape.org/namespaces/inkscape"
   width="48"
   height="48"
   viewBox="0 0 48 48.000001"
   id="svg4793"
   version="1.1"
   inkscape:version="0.91 r13725"
   sodipodi:docname="dash-right.svg">
  <sodipodi:namedview
     id="base"
     pagecolor="#ffffff"
     bordercolor="#666666"
     borderopacity="1.0"
     inkscape:pageopacity="0.0"
     inkscape:pageshadow="2"
     inkscape:zoom="5.6568542"
     inkscape:cx="-0.050167206"
     inkscape:cy="27.067669"
     inkscape:document-units="px"
     inkscape:current-layer="layer1"
     showgrid="false"
     units="px"
     inkscape:snap-bbox="true"
     inkscape:bbox-paths="true"
     inkscape:bbox-nodes="true"
     inkscape:snap-bbox-edge-midpoints="true"
     inkscape:window-width="1346"
     inkscape:window-height="699"
     inkscape:window-x="10"
     inkscape:window-y="35"
     inkscape:window-maximized="1">
    <inkscape:grid
       id="grid5349"
       type="xygrid" />
  </sodipodi:namedview>
  <defs
     id="defs4795" />
  <metadata
     id="metadata4798">
    <rdf:RDF>
      <cc:Work
         rdf:about="">
        <dc:format>image/svg+xml</dc:format>
        <dc:type
           rdf:resource="http://purl.org/dc/dcmitype/StillImage" />
        <dc:title />
      </cc:Work>
    </rdf:RDF>
  </metadata>
  <g
     transform="translate(0,-1004.3622)"
     id="layer1"
     inkscape:groupmode="layer"
     inkscape:label="Ebene 1">
    <g
       transform="matrix(-1,0,0,1,48,0)"
       id="g4136">
      <path
         inkscape:connector-curvature="0"
         style="display:inline;opacity:0.81000001;fill:#1e1e1e;fill-opacity:1;stroke:none;stroke-width:2;stroke-linecap:round;stroke-linejoin:miter;stroke-miterlimit:4;stroke-dasharray:none;stroke-dashoffset:0;stroke-opacity:1"
         d="m 0,0 0,1 45,0 c 1.108,0 2,0.892 2,2 l 0,42 c 0,1.108 -0.892,2 -2,2 l -45,0 0,1 46,0 c 1.108,0 2,-0.892 2,-2 L 48,2 C 48,0.892 47.108,0 46,0 L 0,0 Z"
         transform="translate(0,1004.3622)"
         id="rect4749-1" />
      <path
         style="display:inline;opacity:0.95;fill:#3d3d3d;fill-opacity:1;stroke:none;stroke-width:2;stroke-linecap:round;stroke-linejoin:miter;stroke-miterlimit:4;stroke-dasharray:none;stroke-dashoffset:0;stroke-opacity:1"
         d="m 45,1005.3622 c 1.108,0 2,0.892 2,2 l 0,42 c 0,1.108 -0.892,2 -2,2 l -45,0 0,-46 z"
         id="rect4749-48"
         inkscape:connector-curvature="0"
         sodipodi:nodetypes="csscccc" />
    </g>
  </g>
</svg>
